<?xml version="1.0" standalone="no"?>
<!DOCTYPE svg PUBLIC "-//W3C//DTD SVG 20010904//EN"
 "http://www.w3.org/TR/2001/REC-SVG-20010904/DTD/svg10.dtd">
<svg version="1.0" xmlns="http://www.w3.org/2000/svg"
 width="1080.000000pt" height="1080.000000pt" viewBox="0 0 1080.000000 1080.000000"
 preserveAspectRatio="xMidYMid meet">
<metadata>
Created by potrace 1.14, written by Peter Selinger 2001-2017
</metadata>
<g transform="translate(0.000000,1080.000000) scale(0.100000,-0.100000)"
fill="#000000" stroke="none">
<path d="M5493 9685 c-29 -6 -58 -17 -66 -23 -16 -14 -132 -42 -167 -41 l-25
1 25 7 c29 8 -145 5 -235 -4 -74 -7 -135 -23 -135 -34 0 -5 -10 -11 -22 -14
-62 -15 -217 -66 -243 -80 -16 -8 -49 -34 -73 -56 -23 -23 -45 -41 -50 -41 -4
0 -23 -15 -42 -33 -19 -19 -47 -37 -63 -40 -17 -5 -27 -14 -27 -25 0 -13 -23
-30 -72 -55 -43 -22 -61 -35 -43 -31 30 6 30 6 -8 -20 -21 -15 -35 -31 -32
-35 9 -16 -137 -169 -175 -184 -8 -3 -10 -6 -4 -6 13 -1 -74 -141 -88 -141 -4
0 -8 -5 -8 -11 0 -7 -8 -19 -18 -28 -23 -21 -72 -92 -106 -156 -15 -27 -37
-68 -49 -90 -27 -49 -57 -133 -57 -160 0 -11 -9 -35 -21 -54 -11 -18 -18 -36
-15 -38 3 -3 -4 -24 -16 -47 -20 -39 -46 -156 -53 -237 -1 -20 -5 -41 -8 -46
-3 -5 -9 -41 -12 -79 -3 -38 -8 -82 -11 -99 -19 -109 -43 -290 -49 -359 l-4
-49 34 39 c33 37 54 91 31 76 -31 -19 -49 -5 -21 18 8 7 15 19 15 26 0 7 6 11
14 8 18 -7 49 61 42 92 -4 13 0 39 8 58 8 19 12 37 9 40 -4 3 2 15 12 26 10
11 15 23 12 27 -4 4 -13 -2 -21 -12 -10 -14 -15 -15 -21 -5 -5 7 2 21 18 36
23 21 26 22 30 6 3 -11 5 -7 6 9 1 28 30 104 31 81 0 -7 5 -10 10 -7 6 4 9 9
7 13 -2 4 7 17 20 29 26 25 32 14 6 -12 -15 -16 -15 -17 7 -13 13 1 24 10 26
18 5 33 37 115 47 122 22 14 28 -5 8 -23 -12 -11 -21 -27 -21 -37 0 -10 9 -4
24 18 13 19 22 38 20 41 -1 3 16 34 39 70 31 46 48 63 61 61 14 -3 17 1 12 13
-3 9 -2 14 3 11 4 -3 21 9 37 26 l29 32 -40 -22 -40 -22 29 24 c15 13 23 25
17 27 -6 2 2 19 19 39 16 19 30 41 30 48 0 7 7 20 15 28 15 16 21 39 8 31 -5
-3 -13 1 -20 8 -10 10 -7 14 13 19 13 4 24 11 24 17 0 6 -6 7 -12 4 -7 -4 -4
2 8 12 22 20 28 53 10 53 -6 1 -1 9 12 19 12 11 22 24 22 30 0 6 3 11 8 11 4
0 13 9 20 21 12 19 11 20 -10 9 -18 -8 -16 -5 7 14 17 14 33 26 38 26 16 0 6
20 -10 20 -11 1 -6 6 12 14 17 7 28 17 26 22 -2 5 21 21 50 36 30 15 47 27 39
27 -9 1 -20 -3 -25 -8 -6 -5 -21 -12 -35 -16 -21 -6 -23 -5 -12 6 20 21 114
47 142 39 29 -8 71 1 72 15 2 15 58 31 103 29 22 -1 32 0 23 3 -10 2 -18 9
-18 14 0 5 -12 7 -27 4 -28 -6 -28 -6 -5 7 15 10 40 12 77 8 33 -4 60 -2 66 4
9 8 10 7 4 -3 -6 -11 -4 -13 8 -8 10 4 17 1 17 -5 0 -6 3 -8 6 -5 4 3 16 1 28
-6 11 -6 37 -17 56 -24 l35 -12 -25 20 -25 21 25 -5 c14 -3 35 -8 47 -12 19
-6 22 -4 18 14 -4 20 -3 20 23 4 15 -9 35 -23 45 -31 13 -12 17 -12 17 -2 0 9
6 8 19 -4 11 -10 24 -15 30 -12 5 4 13 1 17 -5 5 -8 3 -9 -6 -4 -8 5 -11 4 -6
-3 9 -16 38 -2 32 15 -8 19 22 2 52 -31 13 -14 29 -23 37 -20 7 3 16 1 20 -5
3 -6 11 -11 17 -11 6 0 1 12 -13 28 -13 15 -17 21 -9 15 17 -15 44 -17 35 -3
-3 6 -1 10 5 10 6 0 10 -8 8 -17 -2 -10 4 -19 15 -21 15 -3 16 0 6 25 l-10 28
20 -22 c49 -52 131 -97 131 -71 0 6 8 4 18 -4 9 -8 24 -19 32 -23 13 -8 13 -6
2 8 -12 14 -8 16 42 13 55 -3 56 -2 39 17 -17 19 -17 19 6 12 21 -6 23 -5 17
11 -5 14 0 12 21 -9 31 -29 43 -34 43 -16 0 5 -4 7 -10 4 -5 -3 -10 -1 -10 4
0 6 4 11 9 11 5 0 11 10 13 23 4 21 5 21 18 -5 7 -15 16 -25 21 -23 4 3 5 -5
1 -17 -3 -14 -2 -19 6 -14 7 4 12 2 12 -4 0 -7 7 -10 15 -6 9 3 15 0 15 -10 0
-11 6 -15 20 -11 11 3 20 2 20 -3 0 -4 12 -5 28 -2 24 5 26 4 13 -11 -12 -15
-11 -17 13 -17 14 0 26 -4 26 -9 0 -5 10 -13 21 -16 17 -6 19 -9 8 -17 -10 -6
-7 -7 9 -3 32 9 69 -1 69 -20 0 -8 -4 -15 -9 -15 -5 0 -6 -5 -2 -11 4 -6 20
-8 39 -5 23 5 38 2 48 -9 9 -8 27 -15 41 -15 14 0 26 -4 26 -10 0 -5 11 -10
25 -10 15 0 25 -6 25 -14 0 -9 13 -13 43 -13 51 0 141 -25 130 -37 -4 -5 4 -7
20 -4 15 3 27 1 27 -3 0 -5 11 -9 25 -9 16 0 25 -6 25 -15 0 -8 6 -15 13 -15
26 0 51 -39 49 -75 -2 -30 1 -34 27 -40 20 -4 28 -11 24 -21 -7 -20 -23 -18
-23 4 0 14 -2 15 -10 2 -12 -20 11 -33 50 -26 30 4 51 -8 28 -17 -10 -4 -10
-6 0 -6 20 -2 13 -21 -8 -21 -11 0 -20 5 -20 12 0 6 -3 8 -6 5 -4 -4 -2 -13 4
-20 7 -8 9 -17 5 -20 -3 -4 1 -7 10 -7 10 0 17 -5 17 -11 0 -5 4 -8 9 -4 6 3
14 -2 19 -11 5 -9 13 -14 18 -12 14 5 17 -54 4 -62 -7 -5 -3 -9 13 -12 23 -4
23 -3 14 26 -5 17 -16 46 -23 64 -8 18 -14 34 -14 35 0 1 18 3 40 3 22 1 37
-2 34 -7 -3 -5 2 -9 11 -9 9 0 13 5 9 11 -4 7 -1 10 7 7 8 -3 15 -12 17 -21 2
-12 -1 -15 -12 -11 -12 5 -15 2 -10 -9 6 -16 64 -20 64 -4 0 4 -4 7 -9 7 -5 0
-11 9 -14 20 -3 11 -2 20 1 20 12 0 61 -36 83 -59 23 -25 43 -86 34 -102 -4
-5 0 -21 9 -33 14 -22 15 -43 2 -84 -3 -9 1 -30 10 -46 14 -29 14 -29 -4 -13
-10 9 -21 17 -24 17 -8 0 -4 -53 6 -69 5 -7 5 -16 0 -20 -14 -10 -16 -45 -4
-76 9 -25 9 -26 -5 -15 -12 10 -15 9 -17 -6 0 -11 -2 -23 -3 -29 -2 -5 -3 -21
-4 -34 -1 -21 -3 -22 -17 -10 -15 12 -16 11 -9 -10 5 -16 4 -21 -4 -17 -15 10
-14 -27 1 -42 9 -9 7 -12 -12 -12 -23 0 -23 0 -4 -21 19 -22 19 -22 -3 -10
-13 7 -23 8 -23 2 0 -9 31 -72 40 -81 15 -15 29 -50 20 -50 -5 0 -9 -11 -8
-25 2 -16 8 -25 20 -25 9 0 22 -10 29 -21 8 -15 8 -19 0 -15 -6 4 -14 0 -17
-8 -6 -17 29 -81 49 -90 7 -2 4 -5 -6 -5 -10 -1 -16 -5 -12 -11 3 -5 13 -7 23
-4 16 5 16 5 0 -6 -24 -15 -23 -37 1 -50 14 -7 22 -7 27 2 4 7 3 8 -5 4 -9 -6
-11 3 -7 33 3 31 0 44 -12 52 -13 8 -14 11 -4 16 10 4 8 12 -10 31 l-23 25 25
-18 c28 -21 87 -87 74 -83 -9 3 -14 -4 -14 -21 0 -5 11 -12 25 -15 14 -4 25
-13 25 -21 0 -18 -12 -19 -29 -2 -11 10 -12 8 -3 -9 6 -12 8 -24 5 -28 -3 -3
-1 -6 6 -6 7 0 10 -7 7 -17 -3 -10 -1 -25 5 -33 8 -12 9 -9 4 9 -5 16 -4 21 4
17 6 -4 11 -14 11 -22 0 -8 4 -14 8 -14 5 0 9 -13 10 -28 0 -15 2 -32 3 -37 5
-17 -12 -104 -20 -110 -5 -2 -7 -27 -5 -55 1 -28 -1 -48 -5 -45 -5 2 -7 -25
-5 -61 2 -44 0 -63 -7 -58 -8 4 -9 -4 -4 -26 5 -25 4 -31 -5 -25 -10 6 -11 1
-6 -21 14 -56 6 -148 -13 -164 -16 -13 -18 -27 -15 -93 2 -55 0 -76 -8 -71 -6
4 -9 1 -6 -6 2 -7 -6 -24 -19 -38 -13 -14 -23 -34 -23 -44 0 -11 -4 -17 -9
-13 -11 6 -26 -32 -22 -57 1 -10 -3 -18 -8 -18 -6 0 -11 -7 -11 -15 0 -8 -4
-15 -9 -15 -5 0 -7 -14 -4 -30 2 -17 -2 -43 -10 -58 -9 -19 -11 -36 -5 -51 7
-19 5 -22 -8 -17 -13 5 -14 1 -9 -25 7 -30 6 -31 -18 -27 -18 4 -24 1 -20 -9
3 -7 9 -11 13 -8 4 2 5 -10 2 -28 -2 -17 -4 -45 -4 -60 l1 -29 -27 29 c-15 15
-24 29 -21 31 8 4 -18 59 -32 68 -6 3 -13 -3 -16 -15 l-5 -21 -33 20 c-18 11
-39 20 -48 20 -8 0 -18 8 -21 17 -6 15 -8 15 -16 3 -6 -9 -5 -17 3 -22 8 -5 6
-8 -5 -8 -10 0 -18 -5 -18 -11 0 -5 5 -7 11 -3 7 4 10 1 7 -7 -3 -8 -12 -13
-22 -11 -9 2 -16 -4 -16 -11 0 -8 -7 -17 -15 -21 -8 -3 -15 -15 -15 -26 0 -12
-10 -25 -24 -32 -21 -9 -24 -16 -19 -42 3 -17 11 -38 18 -46 14 -16 16 -122 3
-114 -20 13 -12 -68 9 -83 14 -11 14 -13 2 -13 -8 0 -20 5 -27 12 -9 9 -12 5
-12 -20 0 -22 -5 -32 -15 -32 -8 0 -14 -3 -13 -7 4 -16 -24 -83 -35 -83 -8 0
-7 -4 1 -12 18 -18 15 -26 -10 -24 -20 1 -23 -4 -22 -31 1 -18 -2 -33 -7 -33
-5 0 -9 -8 -9 -17 -1 -16 -2 -17 -13 -2 -10 14 -14 14 -25 3 -6 -7 -12 -19
-12 -26 0 -9 -3 -9 -10 2 -8 12 -10 8 -12 -15 -1 -16 -1 -41 0 -54 1 -27 -13
-17 -21 14 -3 12 -5 7 -6 -15 -1 -19 -8 -46 -16 -60 -13 -23 -14 -23 -15 -4 0
12 -7 21 -15 21 -9 0 -15 -10 -15 -24 0 -21 -3 -22 -36 -17 -30 5 -36 3 -31
-9 5 -13 -1 -14 -31 -10 -34 6 -36 5 -23 -11 13 -16 12 -17 -12 -11 -20 6 -27
3 -27 -8 0 -8 -6 -18 -12 -20 -10 -4 -9 -8 2 -16 24 -16 6 -21 -23 -6 -23 12
-27 12 -27 0 0 -26 -32 -95 -41 -89 -13 8 -11 -10 3 -24 9 -9 8 -12 -4 -12
-12 0 -15 -7 -12 -25 2 -14 0 -25 -6 -25 -6 0 -8 -6 -4 -12 4 -8 3 -10 -2 -5
-5 5 -10 13 -10 18 -1 5 -2 13 -3 18 -2 17 -42 23 -73 10 -21 -9 -28 -17 -25
-31 3 -11 0 -18 -9 -18 -17 0 -8 -30 14 -47 14 -12 14 -13 -1 -13 -9 0 -17 3
-17 8 0 4 -7 15 -15 26 -13 17 -14 17 -36 -3 -23 -22 -45 -29 -34 -11 3 6 3
10 -2 10 -15 0 -28 -15 -31 -35 -2 -11 -10 -24 -18 -28 -16 -9 -19 -27 -3 -27
5 0 7 5 3 11 -4 7 2 9 17 7 12 -1 24 -9 27 -17 3 -8 0 -11 -7 -7 -6 4 -11 2
-11 -4 0 -6 -4 -9 -9 -5 -19 11 -20 -13 -1 -33 11 -12 19 -27 18 -34 -2 -7 2
-12 9 -11 21 4 33 -31 23 -63 -10 -29 -10 -29 -6 -2 2 19 -4 34 -20 49 -13 13
-24 28 -24 35 0 7 -7 20 -16 28 -8 9 -13 20 -10 25 5 7 -15 21 -30 21 -9 0 -3
-37 9 -50 9 -11 8 -11 -7 0 -18 14 -19 13 -14 -7 7 -25 -1 -30 -20 -11 -9 9
-12 9 -12 0 0 -7 -4 -12 -10 -12 -5 0 -10 11 -10 25 0 14 -5 25 -10 25 -11 0
-14 -7 -25 -54 -5 -23 -9 -26 -15 -16 -7 12 -11 9 -19 -10 -5 -14 -10 -21 -10
-17 -2 21 -39 -32 -43 -62 -4 -31 -4 -32 9 -16 7 11 13 25 13 34 0 8 2 12 5 9
3 -3 -4 -36 -17 -73 -17 -52 -23 -63 -29 -49 -4 10 -8 13 -8 6 -1 -7 -5 -11
-10 -8 -12 8 -41 -4 -41 -16 0 -5 4 -7 9 -3 6 3 6 -6 1 -24 -4 -16 -5 -33 -2
-37 4 -4 1 -4 -5 0 -7 4 -13 2 -13 -3 0 -6 -4 -11 -9 -11 -5 0 -7 9 -4 20 3
12 0 20 -6 20 -7 0 -9 5 -5 12 5 7 2 9 -9 5 -12 -5 -15 0 -11 25 l3 31 -30
-42 c-31 -42 -50 -50 -30 -13 8 16 6 23 -12 38 -12 10 -19 15 -15 10 4 -5 2
-16 -5 -25 -11 -14 -10 -14 6 -2 20 16 23 1 6 -31 -9 -17 -13 -18 -20 -7 -7
11 -11 10 -24 -6 -15 -19 -15 -19 -9 7 5 23 3 27 -15 25 -12 -1 -21 -7 -21
-13 0 -6 -9 -22 -20 -35 l-20 -24 10 29 c9 24 7 32 -10 48 -11 10 -20 23 -20
28 0 19 -15 9 -37 -23 -13 -17 -23 -25 -23 -17 0 10 -4 8 -14 -5 -13 -18 -14
-18 -9 9 5 26 4 27 -14 18 -11 -6 -25 -18 -33 -27 -11 -14 -14 -14 -25 2 -7
10 -11 21 -9 25 3 5 1 8 -4 8 -6 0 -13 -7 -16 -16 -3 -8 -2 -13 3 -10 16 10
22 -27 6 -41 -8 -7 -10 -8 -5 -1 15 17 12 28 -6 28 -9 0 -18 -9 -21 -20 -3
-11 -9 -20 -13 -20 -5 0 -6 9 -3 20 7 27 -11 25 -30 -2 l-16 -23 6 25 c4 14
11 29 17 33 6 5 -5 5 -24 1 -19 -3 -38 -12 -42 -18 -6 -8 -8 -8 -8 1 0 19 -33
21 -54 4 -18 -15 -18 -15 -7 7 6 12 9 22 5 22 -3 0 -1 7 6 15 12 14 9 15 -20
10 -27 -5 -31 -3 -26 11 5 12 2 15 -12 12 -11 -3 -27 -1 -37 5 -13 7 -16 6
-11 -2 4 -6 0 -11 -9 -11 -11 0 -15 5 -11 15 7 19 2 19 -34 0 -16 -8 -36 -12
-45 -9 -14 6 -13 8 4 20 11 8 26 11 35 8 11 -4 16 -1 16 11 0 12 -5 15 -21 10
-15 -5 -19 -4 -15 4 4 6 3 11 -3 11 -5 0 -13 -5 -16 -10 -4 -6 -10 -8 -15 -5
-5 3 2 17 16 32 18 19 21 29 12 34 -17 10 -28 2 -21 -16 4 -11 -3 -15 -26 -15
-17 0 -31 5 -31 10 0 6 7 10 15 10 8 0 15 5 15 10 0 6 -4 10 -10 10 -5 0 -9 3
-9 8 1 4 1 18 0 32 -1 19 -3 22 -11 10 -5 -9 -5 -19 0 -26 13 -15 2 -24 -29
-24 l-26 -1 24 -13 c24 -13 24 -14 -17 -18 -23 -2 -43 0 -43 4 -1 5 -2 13 -3
18 -2 16 -57 41 -78 35 -12 -4 -18 -1 -18 9 0 10 9 16 24 16 23 0 41 22 29 34
-4 3 -28 6 -55 6 -36 0 -48 4 -48 15 0 8 -5 15 -11 15 -5 0 -8 4 -4 9 3 5 -4
13 -16 16 -13 4 -18 12 -15 22 4 11 2 13 -9 9 -14 -5 -14 -2 0 23 14 28 14 29
-15 27 -16 -1 -35 -7 -42 -14 -20 -20 -33 -14 -14 7 13 15 14 20 4 24 -10 3
-9 9 5 24 11 13 15 27 11 38 -6 14 -4 16 6 10 8 -5 11 -4 6 3 -7 11 -46 12
-46 1 0 -4 -7 -9 -15 -13 -14 -5 -14 -2 0 23 11 23 12 30 2 34 -6 2 -17 -3
-24 -12 -11 -14 -12 -14 -13 4 0 11 4 26 9 34 5 8 7 20 4 28 -6 15 -43 18 -43
2 0 -5 -4 -8 -9 -5 -5 3 -7 16 -3 28 5 21 4 21 -19 5 -27 -20 -39 -21 -39 -6
0 5 4 8 9 5 5 -3 11 7 14 22 3 15 1 30 -4 33 -6 3 -7 19 -4 35 l6 29 -15 -30
c-8 -16 -15 -25 -15 -20 -1 6 -5 4 -10 -4 -7 -10 -11 -6 -15 17 -6 23 -11 29
-27 25 -23 -6 -23 -8 -3 50 9 25 14 54 11 64 -3 11 -5 8 -6 -10 0 -16 -5 -26
-11 -22 -5 3 -10 -1 -10 -9 0 -9 -4 -16 -9 -16 -11 0 -21 25 -26 62 -4 31 -54
130 -54 108 0 -8 6 -24 14 -34 8 -11 15 -34 15 -52 0 -18 12 -55 26 -83 14
-29 28 -67 31 -86 3 -19 12 -40 19 -46 8 -6 14 -16 14 -21 0 -5 7 -16 15 -25
8 -8 12 -19 9 -25 -4 -6 -3 -9 2 -6 5 3 19 -8 32 -23 15 -19 19 -29 11 -29 -8
0 1 -13 19 -29 17 -17 32 -37 32 -45 0 -9 18 -33 40 -55 22 -21 40 -42 40 -46
0 -10 43 -44 56 -45 10 0 25 -22 28 -40 1 -3 11 -15 24 -27 12 -13 22 -27 22
-32 0 -5 28 -23 63 -40 34 -17 54 -31 45 -31 -10 0 -18 -3 -18 -8 0 -9 62 -37
75 -33 6 1 7 0 3 -4 -8 -9 16 -35 31 -35 6 0 11 -8 11 -18 0 -11 13 -24 33
-33 17 -8 31 -20 30 -27 -2 -7 8 -12 25 -12 31 -1 67 -24 58 -38 -9 -15 20
-22 53 -12 17 5 30 5 30 2 -4 -23 3 -33 17 -28 10 4 18 0 21 -13 3 -11 16 -22
29 -25 13 -4 24 -11 24 -17 0 -6 9 -8 19 -4 26 8 36 -11 14 -24 -30 -18 3 -30
66 -25 44 3 52 1 42 -9 -6 -6 -17 -12 -23 -12 -6 0 -13 -5 -15 -11 -2 -7 6
-10 22 -7 14 3 25 1 25 -5 0 -10 -29 -26 -43 -23 -5 1 -6 -3 -2 -9 4 -6 16 -8
26 -5 11 4 26 2 33 -4 8 -7 23 -7 45 -1 28 8 31 7 21 -5 -7 -8 -26 -15 -42
-15 l-30 0 23 -24 c18 -19 30 -23 56 -19 29 5 32 3 27 -12 -6 -15 -3 -17 20
-13 20 4 26 2 22 -8 -4 -10 4 -14 29 -14 19 0 38 1 41 3 3 1 11 -7 17 -18 13
-21 33 -26 105 -27 32 0 42 -4 38 -14 -4 -11 7 -14 47 -15 29 -1 60 -2 70 -3
10 -1 25 -10 32 -20 12 -16 17 -17 30 -6 20 17 47 6 38 -16 -5 -13 -2 -16 13
-13 21 6 52 -21 46 -39 -2 -7 9 -11 32 -10 20 1 33 5 29 11 -3 5 0 8 8 5 8 -3
15 -14 17 -26 3 -18 6 -19 33 -10 16 5 29 14 29 20 0 6 7 7 16 4 8 -3 12 -2 9
4 -9 15 43 24 60 10 16 -13 39 -4 29 12 -10 16 23 37 48 30 20 -5 20 -5 -3
-18 -24 -13 -24 -13 9 -14 23 0 31 4 26 12 -5 8 -2 9 12 3 43 -18 61 -15 119
20 44 27 68 36 90 32 35 -5 57 1 49 14 -3 5 1 10 8 10 7 1 20 2 28 3 8 1 29
-2 45 -6 20 -6 33 -4 40 4 6 7 19 14 30 16 12 2 16 0 9 -5 -18 -14 -25 -43 -9
-36 8 3 13 8 11 12 -7 11 78 8 86 -3 5 -7 8 -4 8 7 0 9 5 17 11 17 5 0 8 -4 5
-9 -9 -13 31 -44 49 -38 8 4 15 1 15 -6 0 -8 4 -6 10 3 8 13 10 12 10 -4 0
-13 5 -17 19 -13 15 3 18 1 14 -11 -5 -12 -1 -14 15 -10 13 4 20 2 19 -5 -4
-19 -31 -47 -47 -48 -10 0 -11 -2 -3 -6 10 -3 9 -13 -3 -41 -8 -20 -18 -39
-22 -42 -4 -3 -7 -12 -7 -20 2 -25 -17 -60 -28 -53 -6 3 -7 1 -3 -5 3 -6 0
-16 -7 -24 -8 -8 -11 -21 -7 -33 7 -19 -18 -75 -32 -75 -5 0 -8 -5 -8 -11 0
-5 5 -7 11 -4 7 5 8 -6 4 -33 -4 -28 -1 -43 10 -52 26 -22 25 -24 -101 -138
-117 -105 -168 -139 -254 -170 -47 -18 -103 -41 -125 -52 -21 -11 -47 -20 -57
-20 -16 0 -55 -18 -167 -79 -49 -27 -160 -154 -202 -233 -23 -43 -45 -78 -50
-78 -20 0 -53 -78 -53 -129 l-1 -54 -65 -34 c-36 -19 -75 -43 -86 -53 -28 -24
-92 -157 -104 -217 -12 -59 -31 -129 -59 -208 -11 -33 -21 -66 -21 -73 0 -14
-34 -97 -50 -122 -5 -8 -17 -28 -26 -45 -9 -16 -29 -46 -44 -65 -15 -19 -38
-60 -52 -90 -43 -90 -74 -163 -87 -200 -20 -55 -27 -72 -44 -110 l-16 -35 -2
95 c-1 96 -2 120 -14 310 -8 148 -14 204 -30 295 -8 44 -21 127 -31 185 -9 58
-22 116 -30 130 -20 36 -91 258 -103 323 -12 68 -33 118 -58 143 -22 22 -132
162 -181 232 -35 49 -65 109 -77 152 -9 29 -39 73 -208 302 -77 103 -123 183
-142 243 -13 40 -31 286 -35 449 0 19 0 19 -21 0 -31 -28 -101 -150 -116 -202
-26 -93 -89 -268 -104 -292 -9 -14 -23 -38 -30 -54 -10 -21 -36 -41 -89 -69
-41 -21 -97 -56 -125 -76 -33 -24 -73 -43 -116 -53 -59 -15 -213 -82 -279
-122 -14 -8 -45 -24 -70 -36 -25 -11 -79 -40 -120 -65 -41 -24 -97 -54 -125
-67 -27 -12 -79 -44 -114 -71 -35 -26 -87 -60 -115 -73 -28 -14 -64 -33 -81
-42 -16 -8 -37 -19 -45 -22 -8 -4 -43 -21 -76 -39 -34 -17 -69 -31 -78 -31 -9
0 -33 -8 -54 -19 -24 -12 -67 -20 -122 -23 -58 -3 -100 -12 -132 -26 -27 -12
-69 -32 -95 -43 -86 -38 -218 -103 -223 -109 -6 -7 -87 -46 -170 -81 -30 -13
-71 -36 -91 -52 -27 -21 -54 -31 -103 -38 -96 -13 -126 -34 -126 -88 0 -12
-24 -40 -62 -73 -96 -81 -357 -345 -409 -413 -69 -89 -91 -128 -271 -475 -21
-41 -45 -97 -53 -125 -30 -108 -36 -136 -29 -146 3 -6 1 -32 -6 -57 -15 -58
-40 -142 -47 -162 -4 -8 -15 -46 -25 -85 -10 -38 -23 -86 -28 -105 -5 -19 -10
-128 -10 -242 l0 -208 5400 0 5400 0 0 310 c0 170 -4 329 -10 352 -5 24 -18
88 -29 143 -27 137 -34 161 -66 230 -38 79 -78 146 -137 225 -27 36 -54 83
-60 105 -25 87 -133 224 -236 298 -29 21 -51 50 -71 91 -16 34 -40 73 -53 87
-37 42 -115 98 -161 116 -23 9 -59 32 -80 50 -45 40 -118 88 -207 135 -36 19
-87 48 -115 63 -100 56 -227 94 -437 129 -34 6 -231 102 -308 151 -20 12 -64
37 -98 54 -35 17 -115 63 -178 101 -64 39 -118 70 -121 70 -3 0 -17 8 -31 19
-64 44 -440 225 -632 304 -129 53 -276 128 -362 184 -43 28 -110 64 -150 79
-40 16 -75 32 -76 37 -2 4 -40 56 -84 115 -44 59 -88 125 -98 147 -70 154
-104 219 -146 279 -45 64 -57 73 -144 117 -52 27 -101 49 -107 49 -10 0 -13
-25 -13 -93 0 -54 -5 -98 -11 -104 -8 -8 -8 -13 0 -17 12 -8 15 -27 4 -25 -21
3 -31 -3 -29 -18 0 -11 -7 -19 -20 -21 -16 -2 -22 2 -20 14 2 30 -22 26 -29
-5 -4 -17 -10 -31 -15 -31 -5 0 -15 -2 -23 -5 -8 -4 -14 0 -14 9 0 8 4 13 8
10 12 -7 38 36 32 52 -3 9 2 14 16 14 14 0 19 5 15 15 -5 12 -10 13 -20 4 -11
-9 -14 -8 -14 5 0 21 -9 20 -27 -1 -12 -15 -14 -16 -10 -2 3 9 0 22 -6 28 -8
8 -7 14 2 23 11 11 13 10 8 -4 -8 -22 9 -24 17 -2 3 8 10 12 16 9 6 -3 7 1 4
10 -4 9 -13 14 -21 11 -23 -9 -5 54 22 82 14 14 21 30 18 42 -3 13 1 22 11 26
13 5 14 9 5 20 -6 8 -15 11 -20 8 -17 -10 -30 7 -17 21 33 36 38 46 39 67 1
13 -2 31 -6 41 -4 10 -3 17 3 17 6 0 13 -6 15 -12 3 -7 3 2 0 20 -4 23 -2 32
8 32 12 0 12 2 0 9 -10 6 -10 13 -3 28 9 15 7 22 -8 33 -13 9 -16 18 -10 25 7
8 5 12 -5 12 -8 0 -15 -4 -15 -9 0 -4 -8 -8 -17 -8 -15 0 -15 2 2 14 15 10 18
24 16 57 -1 24 -6 48 -11 54 -11 14 4 40 19 31 6 -4 12 -4 12 1 7 47 6 63 -1
63 -4 0 -10 -4 -12 -10 -1 -5 -11 4 -20 20 -12 20 -13 32 -6 36 7 4 8 2 4 -4
-4 -7 -1 -12 8 -12 9 0 16 7 16 15 0 8 -4 15 -10 15 -19 0 -10 21 12 29 13 5
17 10 10 15 -6 3 -13 2 -17 -4 -4 -6 -10 -8 -15 -5 -4 3 -11 -7 -14 -20 -4
-14 -11 -23 -17 -20 -7 5 -6 11 1 20 6 8 15 26 20 42 8 26 8 26 9 4 2 -38 27
-8 34 39 5 42 32 80 40 57 2 -6 8 6 12 28 4 22 12 43 17 46 5 3 12 25 15 48 3
22 10 41 14 41 5 0 9 8 9 18 0 10 6 26 14 37 8 11 20 40 27 65 7 25 21 53 30
64 10 10 20 40 24 67 4 27 10 49 15 49 4 0 11 17 15 37 3 20 16 56 27 79 l19
42 34 -14 c64 -26 138 -18 193 22 12 8 9 77 -3 100 -8 16 -15 25 -15 19 0 -17
-20 11 -25 35 -2 13 -10 27 -16 31 -7 4 -9 18 -5 35 7 28 8 57 3 99 -1 12 4
20 13 20 9 0 16 -11 18 -30 9 -114 15 -136 44 -176 l31 -42 33 38 c18 21 31
42 28 46 -2 4 0 9 4 11 5 1 27 41 50 88 22 47 64 123 91 169 52 87 56 96 89
221 16 62 19 97 14 200 -5 132 -17 170 -53 170 -11 0 -19 5 -19 10 0 6 5 10
10 10 18 0 11 39 -9 50 -29 15 -53 13 -126 -12 -80 -26 -102 -16 -61 29 24 25
66 133 66 169 0 8 4 14 9 14 10 0 24 71 23 118 0 18 4 30 9 26 5 -3 9 7 8 23
-3 50 14 248 21 253 4 3 10 46 14 95 3 50 13 142 22 205 10 82 12 137 6 192
-4 42 -4 75 0 72 10 -6 10 -6 -1 34 -5 17 -6 32 -2 32 8 0 6 135 -3 182 -6 35
-26 97 -37 121 -6 11 -5 17 2 17 9 0 9 4 0 14 -6 7 -14 41 -17 75 -4 33 -11
61 -17 61 -5 0 -7 13 -4 30 5 23 2 32 -13 40 -11 6 -17 17 -14 24 3 8 1 17 -5
21 -6 3 -11 19 -11 35 0 32 -44 132 -66 151 -8 6 -14 20 -14 30 0 10 -4 21
-10 24 -9 6 -75 113 -110 180 -31 58 -64 102 -84 111 -12 5 -21 16 -21 24 0 8
-5 15 -11 15 -6 0 -19 8 -29 19 -18 18 -19 18 -32 0 -7 -10 -13 -22 -13 -28 0
-5 -3 -7 -6 -4 -3 4 1 20 10 36 l15 30 -97 90 c-127 118 -137 126 -238 178
-48 24 -96 57 -107 72 -31 41 -43 51 -23 19 25 -41 10 -47 -25 -9 -16 18 -33
32 -37 33 -44 5 -89 33 -98 61 -4 14 -8 17 -14 8 -5 -8 -9 -7 -14 6 -6 16 -7
16 -20 -1 -12 -17 -19 -13 -90 56 -43 41 -83 76 -89 78 -6 2 -23 15 -37 28
-25 24 -53 39 -125 66 -50 18 -217 20 -292 2z m157 -15 c0 -5 11 -10 24 -10
14 0 31 -9 38 -19 8 -10 24 -21 37 -23 14 -2 25 -11 27 -21 2 -14 -2 -16 -19
-12 -31 9 -72 41 -69 54 1 6 -5 11 -13 11 -8 0 -15 -4 -15 -10 0 -6 -9 -6 -26
0 -14 6 -60 10 -102 10 -73 0 -90 12 -32 23 50 9 150 7 150 -3z m215 -48 c-3
-3 -11 0 -18 7 -9 10 -8 11 6 5 10 -3 15 -9 12 -12z m-385 -162 c8 -5 11 -10
5 -10 -5 0 -17 5 -25 10 -8 5 -10 10 -5 10 6 0 17 -5 25 -10z m-682 -7 c-10
-2 -28 -2 -40 0 -13 2 -5 4 17 4 22 1 32 -1 23 -4z m97 -113 c4 -6 -9 -10 -32
-9 -38 1 -38 1 -8 9 17 4 31 8 32 9 1 0 5 -3 8 -9z m-60 -40 c-3 -5 -18 -10
-33 -10 -21 0 -24 2 -12 10 20 13 53 13 45 0z m640 4 c25 -10 0 -21 -35 -16
-17 2 -30 8 -30 13 0 10 41 12 65 3z m-375 -53 c0 -4 -11 -6 -25 -3 -14 2 -25
6 -25 8 0 2 11 4 25 4 14 0 25 -4 25 -9z m-220 -15 c25 -8 36 -15 25 -15 -21
1 -98 27 -80 28 6 0 30 -6 55 -13z m318 -17 l57 -1 -40 -10 c-63 -15 -229 -22
-221 -9 4 6 34 11 67 11 43 0 58 3 53 12 -5 8 -2 9 10 5 10 -4 43 -8 74 -8z
m-351 -75 c-3 -3 -12 -4 -19 -1 -8 3 -5 6 6 6 11 1 17 -2 13 -5z m521 -11
c-10 -2 -28 -2 -40 0 -13 2 -5 4 17 4 22 1 32 -1 23 -4z m-112 -104 c8 -14
-10 -11 -32 6 -18 13 -18 14 4 8 12 -3 25 -9 28 -14z m-92 -19 c50 -23 56 -28
29 -26 -19 2 -83 33 -83 41 0 8 4 6 54 -15z m76 -22 c0 -6 -6 -5 -15 2 -8 7
-15 14 -15 16 0 2 7 1 15 -2 8 -4 15 -11 15 -16z m-227 -9 c20 -7 37 -16 37
-20 0 -9 -18 -4 -67 18 -30 13 -49 31 -20 19 6 -2 29 -10 50 -17z m-17 -45
c18 -14 18 -14 -6 -3 -31 14 -36 19 -24 19 6 0 19 -7 30 -16z m94 6 c8 -5 11
-10 5 -10 -5 0 -17 5 -25 10 -8 5 -10 10 -5 10 6 0 17 -5 25 -10z m54 -19 c-2
-3 -12 3 -22 13 -16 17 -16 18 5 5 12 -7 20 -15 17 -18z m-964 9 c-8 -5 -22
-10 -30 -10 -13 0 -13 1 0 10 8 5 22 10 30 10 13 0 13 -1 0 -10z m-70 -14 c0
-3 -4 -8 -10 -11 -5 -3 -10 -1 -10 4 0 6 5 11 10 11 6 0 10 -2 10 -4z m815
-16 c10 -11 16 -20 13 -20 -3 0 -13 9 -23 20 -10 11 -16 20 -13 20 3 0 13 -9
23 -20z m835 10 c0 -5 -5 -10 -11 -10 -5 0 -7 5 -4 10 3 6 8 10 11 10 2 0 4
-4 4 -10z m-695 -30 c3 -6 -1 -7 -9 -4 -18 7 -21 14 -7 14 6 0 13 -4 16 -10z
m-829 -115 c-11 -8 -27 -15 -35 -15 -10 1 -7 6 9 15 33 19 50 18 26 0z m1594
-85 c0 -5 -10 -10 -22 -10 -19 0 -20 2 -8 10 19 13 30 13 30 0z m-1664 -15
c-20 -15 -36 -19 -36 -10 0 5 38 23 50 24 3 0 -4 -6 -14 -14z m-84 -27 c-7 -7
-12 -8 -12 -2 0 14 12 26 19 19 2 -3 -1 -11 -7 -17z m-122 -48 c-6 -11 -13
-20 -16 -20 -2 0 0 9 6 20 6 11 13 20 16 20 2 0 0 -9 -6 -20z m92 -210 c-9
-16 -21 -30 -25 -30 -9 0 -1 17 21 43 22 25 23 21 4 -13z m-108 -185 c-9 -14
-21 -25 -26 -25 -9 0 -3 15 17 37 19 22 26 13 9 -12z m2603 -11 c-3 -3 -12 -4
-19 -1 -8 3 -5 6 6 6 11 1 17 -2 13 -5z m-2674 -51 c-7 -2 -13 -10 -13 -17 0
-7 -7 -21 -16 -32 -14 -18 -15 -18 -8 6 8 31 23 50 38 49 7 0 6 -2 -1 -6z
m-66 -75 c-3 -8 -6 -5 -6 6 -1 11 2 17 5 13 3 -3 4 -12 1 -19z m3043 -252 c0
-12 -5 -7 -19 24 -11 24 -11 24 3 6 9 -11 16 -24 16 -30z m-3254 -88 c-9 -12
-16 -19 -16 -15 0 11 24 47 28 42 2 -2 -3 -14 -12 -27z m3211 -110 c-3 -8 -6
-5 -6 6 -1 11 2 17 5 13 3 -3 4 -12 1 -19z m-3207 8 c0 -3 -4 -8 -10 -11 -5
-3 -10 -1 -10 4 0 6 5 11 10 11 6 0 10 -2 10 -4z m3208 -231 c-3 -3 -9 2 -12
12 -6 14 -5 15 5 6 7 -7 10 -15 7 -18z m30 -70 c-3 -3 -9 2 -12 12 -6 14 -5
15 5 6 7 -7 10 -15 7 -18z m47 -25 c3 -5 1 -10 -4 -10 -6 0 -11 5 -11 10 0 6
2 10 4 10 3 0 8 -4 11 -10z m340 -1121 c-5 -128 -11 -194 -20 -206 -11 -15
-13 -7 -15 52 -3 187 3 345 14 364 22 35 28 -27 21 -210z m-149 156 c1 -6 -14
-30 -32 -54 -19 -25 -34 -37 -34 -28 0 9 5 19 10 22 6 4 8 10 5 15 -3 5 -1 11
5 15 5 3 10 14 10 24 0 18 34 24 36 6z m122 -392 c-20 -44 -70 -134 -73 -131
-6 6 59 138 68 138 5 0 7 -3 5 -7z m-87 -171 c-12 -23 -40 -47 -47 -40 -6 6
37 58 49 58 4 0 3 -8 -2 -18z m-408 -105 c-8 -13 -23 3 -23 26 0 20 0 20 14 2
8 -11 12 -23 9 -28z m-59 25 c3 -5 -1 -9 -9 -9 -8 0 -12 4 -9 9 3 4 7 8 9 8 2
0 6 -4 9 -8z m-4 -42 c0 -5 -5 -10 -11 -10 -5 0 -7 5 -4 10 3 6 8 10 11 10 2
0 4 -4 4 -10z m55 1 c19 -8 19 -8 -4 -21 -21 -11 -23 -10 -18 3 3 9 1 18 -6
21 -7 2 -7 4 -2 5 6 0 19 -4 30 -8z m-378 -473 c-3 -8 -6 -5 -6 6 -1 11 2 17
5 13 3 -3 4 -12 1 -19z m37 -28 c4 -25 3 -31 -4 -20 -5 8 -10 26 -10 39 0 32
6 24 14 -19z m-97 -127 c-3 -10 -5 -4 -5 12 0 17 2 24 5 18 2 -7 2 -21 0 -30z
m-2440 -135 c-3 -7 -5 -2 -5 12 0 14 2 19 5 13 2 -7 2 -19 0 -25z m2200 -14
c1 -18 -2 -23 -9 -16 -6 6 -8 18 -5 26 9 22 12 20 14 -10z m-2166 -67 c-10 -9
-11 -8 -5 6 3 10 9 15 12 12 3 -3 0 -11 -7 -18z m144 -98 c-4 -5 -12 -9 -19
-9 -8 0 -19 -7 -26 -15 -16 -19 -30 -19 -30 -1 0 8 -6 17 -12 20 -7 3 -4 4 7
1 11 -2 31 1 45 9 26 13 44 11 35 -5z m1770 1 c-6 -10 6 -14 35 -11 11 1 11
-1 -2 -9 -13 -8 -24 -8 -39 1 -17 9 -19 13 -8 20 18 11 22 11 14 -1z m-104
-116 c10 -13 10 -17 -2 -25 -19 -12 -22 -11 -45 6 -16 13 -17 14 -1 9 10 -4
17 -3 16 2 -5 28 12 32 32 8z m39 -79 c0 -5 -5 -3 -10 5 -5 8 -10 20 -10 25 0
6 5 3 10 -5 5 -8 10 -19 10 -25z m60 -15 c0 -5 -2 -10 -4 -10 -3 0 -8 5 -11
10 -3 6 -1 10 4 10 6 0 11 -4 11 -10z m-303 -42 c-3 -8 -6 -5 -6 6 -1 11 2 17
5 13 3 -3 4 -12 1 -19z m-1250 -44 c-3 -3 -12 -4 -19 -1 -8 3 -5 6 6 6 11 1
17 -2 13 -5z m1231 -47 c-13 -25 -17 -18 -11 16 4 20 8 25 14 16 4 -7 3 -21
-3 -32z m48 16 c-10 -10 -19 5 -10 18 6 11 8 11 12 0 2 -7 1 -15 -2 -18z m58
2 c3 -8 1 -15 -4 -15 -6 0 -10 7 -10 15 0 8 2 15 4 15 2 0 6 -7 10 -15z
m-1189 -23 c0 -7 6 -16 13 -21 10 -6 9 -10 -7 -14 -11 -2 -21 -1 -23 5 -2 5
-12 10 -24 10 -11 1 -21 9 -21 17 -1 11 8 16 30 16 19 0 32 -5 32 -13z m116
-100 c-17 -6 -13 -30 7 -35 12 -3 10 -5 -7 -6 -14 0 -32 6 -42 15 -19 17 -14
27 26 50 16 9 21 8 24 -4 2 -9 -2 -18 -8 -20z m1026 -24 c-2 -13 -4 -5 -4 17
-1 22 1 32 4 23 2 -10 2 -28 0 -40z m-137 19 c0 -7 -7 -22 -15 -33 -13 -17
-13 -16 -3 14 13 34 18 40 18 19z m-815 -17 c-3 -5 -14 -10 -23 -10 -15 0 -15
2 -2 10 20 13 33 13 25 0z m762 -12 c-3 -8 -6 -5 -6 6 -1 11 2 17 5 13 3 -3 4
-12 1 -19z m130 -20 c-3 -7 -5 -2 -5 12 0 14 2 19 5 13 2 -7 2 -19 0 -25z
m-437 12 c0 -5 -5 -10 -11 -10 -5 0 -7 5 -4 10 3 6 8 10 11 10 2 0 4 -4 4 -10z
m-500 -20 c13 -9 13 -10 0 -10 -8 0 -22 5 -30 10 -13 9 -13 10 0 10 8 0 22 -5
30 -10z m697 -12 c-3 -8 -6 -5 -6 6 -1 11 2 17 5 13 3 -3 4 -12 1 -19z m-647
7 c0 -2 -10 -9 -22 -15 -22 -11 -22 -10 -4 4 21 17 26 19 26 11z m170 -90
c-33 -19 -50 -18 -26 0 11 8 27 15 35 15 10 -1 7 -6 -9 -15z m160 -185 c-6
-11 -15 -20 -20 -20 -16 0 -11 18 8 29 24 14 24 14 12 -9z m1400 -111 c0 -5
-4 -8 -9 -5 -5 4 -12 0 -14 -6 -3 -8 -6 -6 -6 5 -1 9 6 17 14 17 8 0 15 -5 15
-11z m150 -3 c0 -3 -4 -8 -10 -11 -5 -3 -10 -1 -10 4 0 6 5 11 10 11 6 0 10
-2 10 -4z m-70 -46 c0 -5 -4 -10 -10 -10 -5 0 -10 5 -10 10 0 6 5 10 10 10 6
0 10 -4 10 -10z m-525 -60 c3 -5 1 -10 -4 -10 -6 0 -11 5 -11 10 0 6 2 10 4
10 3 0 8 -4 11 -10z m-1797 -926 c30 -20 72 -116 72 -162 0 -63 -57 -82 -102
-34 -41 43 -62 105 -49 144 8 23 8 33 0 39 -8 4 -5 10 7 18 26 15 46 14 72 -5z
m-274 -355 c42 -19 55 -121 21 -159 -15 -17 -20 -17 -50 -4 -19 8 -46 14 -60
14 -23 0 -25 3 -25 46 0 40 5 51 36 80 39 38 43 39 78 23z m2319 -209 c38 -30
52 -80 33 -123 -45 -109 -201 -46 -172 69 9 36 54 74 86 74 15 0 39 -9 53 -20z
m-1812 -293 c45 -30 61 -63 56 -116 -10 -96 -124 -153 -202 -100 -78 53 -63
163 30 220 40 25 75 24 116 -4z m-1781 -927 c0 -5 -5 -10 -11 -10 -5 0 -7 5
-4 10 3 6 8 10 11 10 2 0 4 -4 4 -10z"/>
<path d="M5748 9603 c7 -3 16 -2 19 1 4 3 -2 6 -13 5 -11 0 -14 -3 -6 -6z"/>
<path d="M5530 8730 c0 -5 5 -10 10 -10 6 0 10 5 10 10 0 6 -4 10 -10 10 -5 0
-10 -4 -10 -10z"/>
<path d="M6380 8365 c0 -7 30 -13 34 -7 3 4 -4 9 -15 9 -10 1 -19 0 -19 -2z"/>
<path d="M6420 8220 c0 -5 5 -10 11 -10 5 0 7 5 4 10 -3 6 -8 10 -11 10 -2 0
-4 -4 -4 -10z"/>
<path d="M6425 8176 c11 -8 23 -12 28 -9 13 8 -3 23 -26 23 -20 0 -20 0 -2
-14z"/>
<path d="M6600 8160 c0 -5 5 -10 10 -10 6 0 10 5 10 10 0 6 -4 10 -10 10 -5 0
-10 -4 -10 -10z"/>
<path d="M6454 8124 c3 -9 6 -23 7 -32 0 -10 3 -12 5 -5 4 9 13 9 32 2 l27 -9
-24 20 c-13 11 -18 20 -12 20 7 0 9 5 6 10 -3 6 -15 10 -27 10 -14 0 -18 -5
-14 -16z"/>
<path d="M6535 8072 c-13 -9 -19 -35 -6 -28 5 4 13 -3 16 -15 5 -15 10 -18 18
-10 8 8 8 14 0 22 -6 6 -9 18 -6 25 6 15 -6 18 -22 6z"/>
<path d="M6486 8048 c-6 -19 -4 -48 4 -48 15 0 19 14 10 31 -7 12 -6 19 3 22
9 4 9 6 -1 6 -7 1 -14 -5 -16 -11z"/>
<path d="M3893 8035 c-7 -8 -13 -17 -13 -20 0 -4 -7 -13 -15 -22 -9 -8 -13
-18 -10 -21 6 -6 65 58 65 71 0 11 -14 8 -27 -8z"/>
<path d="M6645 8020 c-3 -5 -4 -14 -1 -18 7 -11 -31 -52 -47 -52 -7 0 -13 9
-13 19 0 16 3 18 14 8 12 -9 14 -8 11 8 -5 22 -27 27 -45 10 -8 -7 -8 -16 -1
-33 9 -20 16 -23 44 -19 32 6 55 -7 31 -16 -10 -4 -10 -6 0 -6 7 -1 10 -5 7
-11 -3 -5 1 -10 10 -10 11 0 15 5 12 14 -4 10 -1 13 8 9 27 -10 30 28 5 47
-15 11 -21 23 -17 33 7 18 -8 33 -18 17z"/>
<path d="M6514 7979 c-3 -6 -2 -15 3 -20 5 -5 9 -1 10 11 2 22 -2 25 -13 9z"/>
<path d="M6710 7986 c0 -2 7 -6 15 -10 8 -3 15 -1 15 4 0 6 -7 10 -15 10 -8 0
-15 -2 -15 -4z"/>
<path d="M3840 7935 c0 -8 2 -15 4 -15 2 0 6 7 10 15 3 8 1 15 -4 15 -6 0 -10
-7 -10 -15z"/>
<path d="M6590 7915 c-11 -13 -15 -13 -21 -3 -5 8 -8 5 -6 -9 1 -20 13 -28 42
-31 6 0 9 6 7 15 -2 9 1 12 8 8 9 -6 9 -2 1 14 -14 25 -15 25 -31 6z"/>
<path d="M6673 7899 c-14 -14 6 -56 29 -63 15 -3 17 1 13 27 -2 18 -4 35 -4
40 -1 11 -25 9 -38 -4z"/>
<path d="M6620 7850 c0 -5 -10 -10 -22 -10 -20 0 -21 -1 -3 -20 20 -23 37 -26
34 -7 -3 25 1 38 11 32 6 -3 10 -1 10 4 0 6 -7 11 -15 11 -8 0 -15 -4 -15 -10z"/>
<path d="M3691 7724 c0 -11 3 -14 6 -6 3 7 2 16 -1 19 -3 4 -6 -2 -5 -13z"/>
<path d="M3620 7473 c0 -6 -11 -21 -25 -34 -27 -26 -32 -41 -12 -33 17 6 51
63 43 71 -3 4 -6 2 -6 -4z"/>
<path d="M4440 7470 c0 -5 4 -10 9 -10 6 0 13 5 16 10 3 6 -1 10 -9 10 -9 0
-16 -4 -16 -10z"/>
<path d="M4358 7459 c11 -15 6 -17 -55 -21 -38 -3 -72 -2 -78 2 -14 10 -65 1
-89 -16 -11 -8 -15 -14 -9 -14 7 0 15 5 18 10 9 15 66 12 99 -5 18 -9 57 -15
105 -15 42 0 83 -5 91 -10 12 -7 8 -10 -15 -10 -61 -2 8 -18 76 -18 37 0 76
-5 87 -11 11 -6 29 -11 39 -11 15 0 16 2 3 10 -11 7 -6 9 18 6 19 -2 39 -9 45
-15 9 -10 6 -10 -15 -2 -45 17 -32 3 18 -19 25 -12 52 -19 59 -16 7 2 17 0 23
-6 6 -6 12 -6 17 1 4 8 20 1 45 -19 30 -24 39 -27 44 -15 4 12 11 13 32 5 15
-6 29 -8 32 -5 3 3 2 5 -3 5 -4 0 -2 7 5 15 7 8 10 21 7 29 -4 11 2 12 29 6
19 -4 34 -6 34 -3 0 9 -45 42 -58 43 -16 0 -65 31 -75 47 -4 7 -17 13 -27 13
-10 0 -22 5 -25 10 -3 6 -19 10 -36 10 -16 0 -29 4 -29 10 0 9 -43 5 -80 -7
-12 -4 -12 -7 4 -19 39 -28 7 -25 -46 5 -33 19 -68 31 -89 30 -33 0 -33 -1 -9
-10 20 -8 22 -12 10 -19 -8 -5 -22 -10 -30 -10 -13 0 -13 1 0 10 11 7 3 10
-29 10 l-44 0 19 -22 c19 -21 19 -21 -1 -14 -11 5 -32 13 -47 18 -16 5 -25 15
-22 20 4 6 1 8 -7 6 -8 -3 -23 2 -34 11 -18 15 -19 15 -7 0z m22 -29 c0 -5 -8
-10 -17 -10 -15 0 -16 2 -3 10 19 12 20 12 20 0z m337 4 c-3 -3 -12 -4 -19 -1
-8 3 -5 6 6 6 11 1 17 -2 13 -5z"/>
<path d="M6720 7411 c0 -6 4 -13 10 -16 6 -3 7 1 4 9 -7 18 -14 21 -14 7z"/>
<path d="M4090 7396 c0 -2 7 -7 16 -10 8 -3 12 -2 9 4 -6 10 -25 14 -25 6z"/>
<path d="M3524 7338 c-18 -36 -21 -57 -18 -133 4 -137 9 -174 22 -187 17 -17
33 8 25 39 -6 28 4 73 17 73 6 0 10 -8 10 -17 0 -13 6 -10 20 12 17 25 17 31
5 38 -9 4 -20 5 -25 2 -6 -3 -10 -1 -10 5 0 6 -4 8 -10 5 -5 -3 -10 1 -10 10
0 9 3 14 8 12 4 -3 7 8 8 23 1 22 -4 30 -24 35 -21 5 -22 8 -10 18 20 16 33
51 15 41 -9 -5 -9 -4 1 7 13 14 17 59 4 59 -4 0 -17 -19 -28 -42z"/>
<path d="M3630 7348 c0 -19 2 -20 10 -8 13 19 13 30 0 30 -5 0 -10 -10 -10
-22z"/>
<path d="M6687 7338 c7 -41 12 -46 23 -28 6 9 6 16 0 18 -6 2 -10 10 -10 17 0
8 -4 17 -10 20 -6 4 -7 -6 -3 -27z"/>
<path d="M3651 7324 c0 -11 3 -14 6 -6 3 7 2 16 -1 19 -3 4 -6 -2 -5 -13z"/>
<path d="M6620 7315 c0 -8 4 -15 9 -15 5 0 11 7 15 15 3 9 0 15 -9 15 -8 0
-15 -7 -15 -15z"/>
<path d="M4970 7296 c0 -2 9 -6 20 -9 11 -3 20 -1 20 4 0 5 -9 9 -20 9 -11 0
-20 -2 -20 -4z"/>
<path d="M6766 7291 c-3 -5 0 -11 8 -14 15 -6 26 1 26 15 0 11 -27 10 -34 -1z"/>
<path d="M6586 7263 c3 -19 1 -33 -4 -33 -6 0 -19 -3 -29 -6 -14 -5 -15 -4 -4
4 15 11 8 42 -10 42 -6 0 -8 -7 -5 -16 4 -12 2 -15 -9 -10 -8 3 -15 1 -15 -4
0 -17 -49 -23 -68 -9 -14 11 -15 11 -4 -1 14 -17 16 -34 2 -25 -5 3 -10 1 -10
-6 0 -7 -8 -6 -25 5 -32 21 -41 20 -24 -1 10 -12 4 -10 -18 5 -33 23 -48 28
-39 13 3 -5 -1 -11 -9 -15 -8 -3 -17 0 -21 5 -4 6 -25 8 -53 5 -25 -4 -51 -3
-58 2 -7 4 -39 5 -72 2 -33 -3 -58 -3 -56 0 2 3 -57 5 -131 5 -94 0 -134 -3
-134 -11 0 -7 8 -15 18 -19 15 -6 15 -8 -5 -24 -15 -12 -19 -21 -12 -28 7 -7
2 -19 -15 -36 -13 -14 -23 -26 -21 -28 2 -2 -37 -2 -86 -1 -74 3 -90 1 -95
-12 -3 -9 -13 -16 -21 -16 -27 0 -44 -30 -50 -85 -3 -30 -9 -55 -12 -55 -4 0
-8 -12 -9 -27 -2 -39 -2 -152 0 -161 1 -4 -2 -22 -6 -40 -4 -19 -4 -38 2 -45
11 -14 13 -127 2 -142 -4 -5 -8 -25 -8 -44 0 -19 -7 -38 -14 -42 -10 -7 -10
-11 0 -21 9 -9 12 -9 12 2 0 26 15 -2 16 -30 1 -16 5 -41 8 -55 5 -18 3 -24
-4 -20 -11 7 -6 -26 12 -73 4 -13 5 -28 2 -34 -4 -6 -2 -8 3 -5 6 4 14 0 17
-9 9 -23 7 -31 -4 -14 -8 12 -11 12 -28 -3 -10 -9 -21 -15 -24 -12 -10 10 -85
-65 -102 -103 -18 -39 -55 -65 -93 -65 -23 0 -74 -53 -67 -70 6 -16 47 -27
100 -27 39 0 83 -35 65 -53 -7 -7 -6 -20 4 -45 22 -52 17 -63 -6 -14 -17 37
-18 46 -7 60 12 15 11 16 -4 4 -13 -10 -16 -25 -14 -57 4 -47 34 -135 47 -135
4 0 10 -8 13 -17 3 -10 4 -5 2 10 -4 34 9 23 18 -15 5 -23 3 -26 -10 -21 -14
5 -15 1 -10 -25 9 -39 4 -40 -144 -43 -101 -2 -132 2 -162 18 -20 11 -5 -17
17 -31 18 -12 51 -17 111 -19 94 -2 104 -8 104 -64 0 -41 16 -43 24 -3 6 32
36 51 67 43 29 -8 43 -137 17 -155 -7 -5 -34 -7 -59 -6 -28 2 -51 -2 -58 -9
-7 -8 -41 -14 -84 -15 l-72 -2 64 -3 c35 -2 74 -11 87 -20 13 -8 33 -13 43
-10 12 3 22 -1 25 -10 9 -24 7 -32 -14 -53 -26 -26 -21 -34 35 -50 34 -9 52
-10 68 -2 32 16 111 27 103 14 -8 -13 2 -39 19 -45 10 -4 11 3 5 29 -7 31 -6
34 15 34 13 0 26 -6 28 -12 3 -7 6 -3 6 9 1 12 10 27 21 33 11 6 20 20 20 30
0 14 7 20 21 20 13 0 45 25 83 64 56 58 65 64 116 70 30 4 65 14 78 22 22 14
24 13 26 -15 1 -8 7 -16 14 -19 10 -3 13 4 12 24 -3 48 -1 64 11 64 5 0 7 -4
4 -10 -3 -5 -3 -10 2 -10 4 0 18 17 30 38 16 29 20 48 16 80 -5 35 -8 40 -20
31 -10 -9 -17 -9 -25 -1 -17 17 -24 15 -25 -10 -2 -16 0 -19 6 -10 7 11 10 10
14 -3 5 -11 3 -14 -5 -9 -8 5 -9 2 -5 -9 3 -10 2 -17 -3 -17 -5 0 -12 9 -15
20 -3 11 -10 20 -15 20 -8 0 -19 30 -25 69 -2 13 -7 26 -11 30 -4 3 -4 -5 -1
-18 7 -28 -8 -15 -17 14 -3 11 -4 1 -2 -22 4 -40 3 -42 -16 -32 -13 7 -18 17
-15 30 3 12 1 17 -6 12 -7 -4 -8 0 -4 11 4 9 3 15 -2 11 -5 -3 -11 0 -13 6 -2
7 -10 10 -17 8 -11 -4 -11 -7 0 -19 17 -18 49 -67 49 -75 0 -14 -22 9 -32 33
l-11 27 -7 -25 -7 -25 -7 30 c-4 17 -11 39 -16 50 -11 27 -22 79 -18 85 2 3 6
4 10 3 12 -4 9 12 -4 25 -10 10 -10 15 1 21 8 5 14 23 13 40 0 17 4 31 10 31
6 0 8 16 5 43 -3 23 -8 62 -11 87 -3 25 -10 60 -15 79 -6 19 -8 38 -5 42 3 5
0 9 -7 9 -7 0 -9 3 -6 7 4 3 0 14 -8 23 -9 10 -14 31 -12 51 2 19 -3 40 -11
48 -7 7 -10 21 -6 30 3 9 7 22 7 29 0 6 6 12 14 12 7 0 13 5 13 11 0 6 11 25
25 43 24 32 29 75 12 103 -9 14 37 63 58 63 8 0 15 7 15 15 0 8 -5 15 -12 15
-6 0 -8 3 -4 7 3 4 -3 12 -15 19 -12 6 -28 26 -35 43 -13 31 -13 32 9 26 19
-5 20 -4 5 5 -45 28 -4 53 45 28 12 -6 29 -14 37 -18 8 -4 15 -16 15 -26 0
-14 -6 -18 -25 -16 l-25 2 25 -14 c28 -17 64 -21 55 -7 -3 5 -1 12 4 15 5 4
13 -3 16 -14 5 -17 10 -19 21 -9 8 6 21 8 31 3 10 -4 39 -6 65 -5 53 3 111
-17 103 -37 -3 -9 5 -11 30 -8 19 3 37 0 40 -5 4 -5 16 -7 28 -4 24 6 111 -27
100 -38 -3 -4 1 -7 10 -7 9 0 21 -9 27 -20 6 -11 18 -20 28 -19 10 0 12 3 4 6
-7 2 -17 13 -22 24 -8 14 -7 17 2 14 16 -6 52 50 43 65 -3 6 1 10 9 10 9 0 16
7 16 15 0 8 -6 15 -14 15 -8 0 -18 5 -22 11 -4 7 0 9 14 5 23 -8 74 2 68 13
-3 4 6 15 19 25 14 10 22 22 19 27 -6 10 19 39 33 39 16 0 54 -41 48 -51 -4
-5 -1 -9 6 -9 8 0 8 -5 -2 -16 -11 -14 -10 -18 5 -30 16 -11 17 -16 6 -29 -11
-13 -10 -18 6 -29 10 -8 23 -12 28 -8 5 3 2 8 -8 12 -25 8 -20 24 7 25 12 0
21 6 19 13 -1 6 5 12 13 12 8 0 15 9 15 20 0 12 7 20 18 21 9 0 12 3 5 5 -8 4
-9 13 -3 30 7 17 6 24 -2 24 -7 0 -3 7 8 16 10 8 12 13 4 9 -8 -4 -6 1 4 9 11
9 17 17 13 17 -4 1 -11 3 -17 4 -5 1 -15 3 -21 4 -5 0 -8 5 -4 11 8 13 -5 61
-16 54 -5 -3 -9 0 -9 5 0 6 4 11 8 11 5 0 9 6 9 13 0 6 4 20 8 30 4 10 3 17
-4 17 -6 0 -10 -3 -10 -7 6 -38 -26 -51 -52 -22 -23 26 -24 30 -4 23 10 -4 13
0 10 18 -3 12 -9 24 -15 26 -6 2 -8 8 -4 13 5 8 -9 13 -29 10 -4 -1 -6 18 -5
41 2 33 0 42 -11 40 -12 -3 -12 0 -2 12 7 9 10 24 6 36 -5 17 -2 23 15 27 16
4 20 12 18 32 -2 20 1 25 15 23 9 -2 17 2 17 8 0 6 5 8 12 4 6 -4 8 -3 4 4 -3
6 -16 9 -27 7 -29 -6 -72 13 -66 28 4 10 -4 13 -27 11 -17 -1 -32 -3 -34 -3
-1 -1 2 -10 7 -20 9 -15 7 -20 -10 -24 -15 -4 -23 2 -34 26 l-15 32 6 -32z
m59 -56 c11 -16 14 -15 29 5 l16 23 -3 -30 c-3 -41 -18 -57 -34 -36 -14 18
-14 16 -17 -49 -1 -42 3 -47 21 -29 9 9 10 6 6 -10 -3 -12 -10 -24 -15 -27
-13 -8 -60 37 -54 53 3 6 -4 15 -15 18 -10 4 -16 11 -13 17 4 6 10 5 15 -3 7
-11 9 -10 9 4 0 20 -4 21 -31 7 -10 -6 -19 -8 -19 -5 0 11 33 70 42 76 16 10
51 3 63 -14z m-378 -162 c35 -3 75 -12 90 -20 16 -8 39 -15 52 -15 13 0 39
-11 57 -25 18 -14 37 -25 42 -25 17 0 21 -40 6 -55 -8 -8 -10 -16 -5 -20 5 -3
12 -1 16 5 3 5 11 10 17 10 6 0 -2 -11 -18 -25 -16 -14 -33 -25 -37 -25 -5 0
-5 -5 -2 -10 6 -10 -42 -35 -59 -31 -5 1 -13 -4 -17 -11 -7 -10 -9 -10 -9 0 0
6 -6 12 -14 12 -7 0 -19 7 -27 16 -18 22 -131 78 -209 103 -73 24 -70 24 -70
12 0 -5 13 -12 30 -16 25 -5 28 -9 17 -20 -10 -10 -41 -12 -123 -9 -125 5
-154 10 -154 25 0 6 7 9 15 5 8 -3 18 0 22 7 10 15 32 19 111 19 34 0 62 1 62
3 0 1 -34 10 -75 20 -41 9 -75 21 -75 26 0 4 -9 6 -19 4 -11 -2 -22 3 -25 11
-3 8 -2 14 2 15 20 2 45 8 60 15 9 4 60 9 112 11 52 2 96 6 98 8 2 2 18 -1 35
-5 18 -5 60 -11 94 -15z m403 -24 c0 -11 5 -23 10 -26 6 -3 10 -15 10 -26 0
-10 6 -19 13 -19 8 0 13 -15 13 -44 l0 -44 -22 31 c-21 31 -31 56 -39 94 -2
10 -6 26 -10 36 -5 12 -2 17 9 17 9 0 16 -8 16 -19z m-490 -121 c8 -5 12 -11
9 -14 -3 -3 -14 1 -25 9 -21 16 -8 20 16 5z m-279 -101 c-1 -30 -5 -56 -7 -59
-7 -7 -76 33 -81 48 -10 24 15 60 44 65 45 6 47 3 44 -54z m679 51 c-12 -8
-12 -10 -1 -10 8 0 12 -3 8 -6 -9 -9 -28 6 -22 17 4 5 12 9 18 9 7 0 6 -4 -3
-10z m-585 -35 c0 -30 -39 -27 -43 3 -3 20 0 23 20 20 15 -2 23 -10 23 -23z
m705 5 c0 -5 -8 -10 -17 -10 -15 0 -16 2 -3 10 19 12 20 12 20 0z m-25 -28
c-3 -3 -11 0 -18 7 -9 10 -8 11 6 5 10 -3 15 -9 12 -12z m85 -2 c6 -11 9 -20
8 -21 -31 -8 -38 -5 -38 17 0 29 15 31 30 4z m5 -71 c-4 -10 -2 -19 4 -19 5 0
9 -9 8 -19 -2 -36 -24 -10 -24 29 0 22 4 37 9 34 5 -3 6 -14 3 -25z m-600 -29
c-3 -5 -12 -10 -18 -10 -7 0 -6 4 3 10 19 12 23 12 15 0z m-768 -887 c-3 -10
-5 -4 -5 12 0 17 2 24 5 18 2 -7 2 -21 0 -30z m407 -103 c4 -31 3 -40 -4 -30
-9 14 -15 88 -6 79 2 -2 6 -24 10 -49z m-407 -12 c-3 -8 -6 -5 -6 6 -1 11 2
17 5 13 3 -3 4 -12 1 -19z m82 -52 c-5 -6 -9 -20 -9 -33 0 -13 -4 -23 -10 -23
-5 0 -10 25 -10 56 l0 56 19 -23 c12 -15 16 -28 10 -33z m53 16 c3 -11 0 -19
-7 -19 -7 0 -10 8 -7 19 2 10 6 18 7 18 1 0 5 -8 7 -18z m37 -64 c1 -31 -17
-47 -30 -27 -12 19 -11 32 2 23 6 -3 10 1 9 12 -1 11 -1 28 0 39 l1 20 9 -20
c5 -11 9 -32 9 -47z m191 47 c19 -22 8 -25 -12 -3 -10 10 -14 18 -9 18 5 0 14
-7 21 -15z m34 -1 c3 -8 2 -12 -4 -9 -6 3 -10 10 -10 16 0 14 7 11 14 -7z
m-185 -36 c1 -5 -3 -8 -7 -8 -4 0 -8 12 -9 28 -1 23 -1 24 7 7 5 -11 9 -23 9
-27z m251 -6 c0 -21 -2 -24 -10 -12 -13 20 -13 53 0 45 6 -3 10 -18 10 -33z
m-110 -46 c0 -14 -35 25 -50 55 -9 17 -4 14 18 -11 17 -19 31 -39 32 -44z
m-228 10 c-6 -10 -20 20 -21 44 0 8 6 4 13 -10 8 -14 12 -29 8 -34z m278 -10
c0 -18 -17 8 -24 34 l-7 25 15 -25 c9 -14 15 -29 16 -34z m230 -66 c11 -7 12
-12 4 -20 -14 -14 -54 67 -53 107 0 22 4 16 18 -25 9 -29 24 -57 31 -62z m-73
68 c-3 -8 -6 -5 -6 6 -1 11 2 17 5 13 3 -3 4 -12 1 -19z m-320 -10 c-3 -8 -6
-5 -6 6 -1 11 2 17 5 13 3 -3 4 -12 1 -19z m220 0 c-3 -8 -6 -5 -6 6 -1 11 2
17 5 13 3 -3 4 -12 1 -19z m43 -11 c0 -5 -4 -5 -10 -2 -5 3 -10 14 -10 23 0
15 2 15 10 2 5 -8 10 -19 10 -23z m188 -15 c-4 -2 -8 -10 -8 -17 0 -8 -4 -16
-9 -20 -6 -3 -8 7 -6 22 2 16 4 37 4 48 1 18 3 17 14 -5 7 -14 9 -26 5 -28z
m-383 27 c11 -17 -1 -21 -15 -4 -8 9 -8 15 -2 15 6 0 14 -5 17 -11z m-155
-117 c0 -35 -20 -80 -39 -87 -38 -15 -47 68 -10 97 31 26 49 23 49 -10z"/>
<path d="M6586 7185 c-3 -8 -1 -15 4 -15 6 0 10 7 10 15 0 8 -2 15 -4 15 -2 0
-6 -7 -10 -15z"/>
<path d="M6728 7273 c6 -2 9 -10 6 -15 -4 -7 -2 -8 4 -4 18 11 14 26 -5 25
-11 0 -13 -3 -5 -6z"/>
<path d="M6475 7240 c4 -6 11 -8 16 -5 14 9 11 15 -7 15 -8 0 -12 -5 -9 -10z"/>
<path d="M3584 7188 c-4 -7 -4 -10 1 -6 4 4 16 3 26 -3 15 -7 17 -6 13 6 -7
18 -30 20 -40 3z"/>
<path d="M4438 7175 c-61 -15 -132 -48 -143 -65 -11 -18 14 -11 56 15 22 14
63 30 92 36 69 13 178 10 197 -7 15 -12 19 -14 41 -14 5 0 8 -4 5 -9 -4 -5 0
-12 6 -14 7 -3 -16 -6 -52 -6 -84 -1 -160 -12 -205 -31 -36 -15 -60 -23 -78
-27 -10 -2 -25 -9 -33 -17 -7 -8 -18 -16 -22 -18 -5 -1 -12 -13 -16 -24 -5
-18 -2 -22 22 -27 16 -3 39 -3 51 0 12 3 21 1 21 -6 0 -6 12 -11 28 -11 21 0
24 -2 12 -10 -11 -7 -7 -10 18 -10 35 0 43 15 14 25 -20 6 -46 51 -37 65 7 12
64 30 68 22 2 -4 5 -27 6 -51 0 -24 3 -46 5 -48 2 -2 21 -6 42 -9 47 -6 58
-21 38 -52 -20 -30 -13 -38 11 -12 22 25 45 26 45 3 0 -15 -2 -16 -10 -3 -8
13 -10 12 -10 -3 0 -12 10 -20 30 -23 17 -4 30 -11 30 -16 0 -6 16 -7 40 -3
33 6 40 4 40 -10 0 -9 -15 -22 -35 -31 -19 -8 -35 -16 -35 -18 0 -3 26 -4 57
-4 46 1 61 5 80 24 13 13 27 23 30 23 4 0 9 4 11 10 2 6 -2 11 -10 11 -16 1
102 50 120 50 28 0 9 19 -22 22 -33 3 -34 4 -19 23 11 14 17 16 20 8 7 -20 23
-15 23 7 0 10 -8 24 -17 29 -17 10 -16 11 2 12 11 1 26 1 33 0 27 -4 9 29 -35
65 -27 21 -50 41 -53 44 -3 3 -32 19 -65 36 -100 52 -292 76 -397 49z m165
-147 c7 -22 -4 -38 -28 -38 -26 0 -39 22 -22 39 15 15 44 14 50 -1z m220 -35
c8 -10 17 -25 19 -33 2 -8 8 -18 13 -22 6 -5 5 -8 -2 -8 -7 0 -13 -6 -13 -14
0 -9 -12 -13 -37 -12 -42 1 -42 3 -25 64 14 46 21 50 45 25z m-56 -107 c5 -5
-3 -5 -16 -1 -19 6 -23 4 -18 -8 5 -12 -1 -13 -35 -4 -24 6 -35 13 -27 17 15
10 86 6 96 -4z"/>
<path d="M6776 7155 c-9 -26 -7 -32 5 -12 6 10 9 21 6 23 -2 3 -7 -2 -11 -11z"/>
<path d="M6768 7074 c-5 -4 -8 -16 -8 -27 0 -13 5 -17 16 -13 9 3 18 6 20 6 2
0 4 5 4 11 0 5 -4 8 -9 4 -5 -3 -11 2 -13 11 -2 9 -6 12 -10 8z"/>
<path d="M6800 6980 c0 -5 5 -10 11 -10 5 0 7 5 4 10 -3 6 -8 10 -11 10 -2 0
-4 -4 -4 -10z"/>
<path d="M4494 6906 c-9 -20 -8 -22 20 -18 25 3 28 1 16 -8 -12 -9 -12 -11 -1
-8 23 6 21 35 -3 46 -18 8 -23 6 -32 -12z"/>
<path d="M3567 6846 c-4 -10 -5 -21 -2 -24 9 -9 17 6 13 25 -3 17 -4 17 -11
-1z"/>
<path d="M4870 6820 c0 -13 7 -20 19 -20 23 0 35 15 25 32 -5 8 -10 6 -15 -8
-7 -17 -8 -17 -8 -1 -1 24 -21 22 -21 -3z"/>
<path d="M3547 6633 c-11 -10 -8 -43 3 -43 6 0 10 11 10 25 0 26 -2 29 -13 18z"/>
<path d="M6758 6563 c7 -3 16 -2 19 1 4 3 -2 6 -13 5 -11 0 -14 -3 -6 -6z"/>
<path d="M6340 6550 c36 -11 52 -11 45 0 -3 6 -21 10 -38 9 -31 -1 -31 -1 -7
-9z"/>
<path d="M3520 6540 c0 -5 5 -10 10 -10 6 0 10 5 10 10 0 6 -4 10 -10 10 -5 0
-10 -4 -10 -10z"/>
<path d="M6770 6538 c0 -7 5 -20 10 -28 8 -12 10 -9 10 13 0 15 -4 27 -10 27
-5 0 -10 -6 -10 -12z"/>
<path d="M3529 6513 c-5 -36 -7 -124 -2 -120 8 9 17 127 9 127 -3 0 -6 -3 -7
-7z"/>
<path d="M3511 6364 c0 -11 3 -14 6 -6 3 7 2 16 -1 19 -3 4 -6 -2 -5 -13z"/>
<path d="M3510 6325 c0 -8 2 -15 4 -15 2 0 6 7 10 15 3 8 1 15 -4 15 -6 0 -10
-7 -10 -15z"/>
<path d="M6525 6330 c3 -5 11 -10 16 -10 6 0 7 5 4 10 -3 6 -11 10 -16 10 -6
0 -7 -4 -4 -10z"/>
<path d="M3560 6306 c0 -8 5 -18 11 -22 10 -6 7 -30 -7 -67 -3 -8 1 -17 8 -19
9 -4 13 8 15 43 1 27 -3 49 -8 49 -6 0 -8 4 -4 9 3 5 1 12 -5 16 -5 3 -10 -1
-10 -9z"/>
<path d="M3510 6271 c0 -25 6 -27 13 -6 4 8 2 17 -3 20 -6 4 -10 -3 -10 -14z"/>
<path d="M3526 6133 c-4 -10 -10 -63 -12 -117 -3 -55 -8 -104 -11 -109 -3 -6
-1 -7 6 -3 6 4 14 0 18 -10 6 -16 7 -15 20 2 11 15 13 16 13 2 0 -9 -4 -19
-10 -23 -11 -7 -2 -35 11 -35 4 0 6 6 3 14 -3 8 0 24 6 35 9 18 7 27 -10 50
-22 32 -28 57 -6 28 16 -21 21 -16 30 35 4 23 2 39 -4 43 -6 4 -9 13 -6 21 3
8 -1 14 -9 14 -9 0 -15 9 -15 23 0 12 -4 28 -9 35 -6 11 -10 10 -15 -5z m25
-116 c-9 -9 -10 -5 -7 13 6 36 8 37 13 16 3 -10 0 -23 -6 -29z"/>
<path d="M4467 6056 c-57 -34 -96 -66 -109 -87 -11 -19 -25 -36 -30 -38 -5 -2
-14 -15 -20 -30 -11 -25 -12 -25 -15 -3 -6 30 -15 28 -42 -8 -12 -17 -26 -28
-30 -26 -13 8 -65 -55 -79 -95 -16 -46 -2 -157 22 -174 10 -8 14 -19 9 -30 -5
-14 -3 -17 9 -13 9 4 21 1 28 -5 10 -10 11 -8 6 8 -6 16 -5 18 5 8 22 -21 28
-15 26 26 0 22 -5 37 -9 35 -4 -3 -8 10 -9 28 -1 18 -3 50 -4 70 -2 21 2 43 9
50 7 7 21 28 31 46 11 18 25 30 31 28 7 -3 21 4 33 15 12 11 21 16 21 12 0 -4
8 1 16 12 11 14 18 16 21 8 4 -12 74 53 131 123 25 30 45 71 40 86 -2 4 -43
-16 -91 -46z m-224 -241 c-3 -9 -8 -14 -10 -11 -3 3 -2 9 2 15 9 16 15 13 8
-4z"/>
<path d="M4908 6099 c-43 -16 -36 -39 12 -39 21 0 50 -5 64 -11 14 -7 40 -9
61 -5 61 12 23 38 -85 60 -14 3 -37 0 -52 -5z"/>
<path d="M6625 5920 c-9 -15 5 -32 21 -26 7 3 20 -2 29 -10 8 -9 15 -11 15 -6
0 9 -43 52 -53 52 -3 0 -9 -4 -12 -10z"/>
<path d="M6643 5873 c-7 -2 -13 -13 -13 -23 0 -10 -4 -22 -10 -25 -19 -12 -10
-21 24 -22 26 -1 33 3 29 13 -3 8 -10 14 -15 14 -6 0 -8 11 -6 25 3 14 5 25 4
24 0 0 -7 -3 -13 -6z"/>
<path d="M5330 5846 c0 -9 5 -16 10 -16 6 0 10 4 10 9 0 6 -4 13 -10 16 -5 3
-10 -1 -10 -9z"/>
<path d="M3530 5813 c0 -28 3 -34 10 -23 13 20 13 47 0 55 -6 4 -10 -9 -10
-32z"/>
<path d="M3557 5810 c-3 -12 0 -20 8 -20 8 0 11 8 8 20 -3 11 -7 20 -8 20 -1
0 -5 -9 -8 -20z"/>
<path d="M3551 5767 c-1 -10 -5 -16 -10 -13 -8 5 -5 -32 5 -64 5 -13 7 -13 15
2 5 10 6 31 0 55 -5 21 -9 30 -10 20z"/>
<path d="M3582 5750 c0 -14 2 -19 5 -12 2 6 2 18 0 25 -3 6 -5 1 -5 -13z"/>
<path d="M5118 5719 c-19 -11 -24 -29 -8 -29 5 0 14 9 20 20 12 23 12 23 -12
9z"/>
<path d="M3572 5684 c-7 -14 -16 -23 -20 -20 -5 3 -9 -8 -9 -25 0 -19 3 -25 9
-17 7 12 11 -23 12 -99 0 -12 4 -20 8 -17 3 2 9 -10 11 -28 l4 -33 1 32 c2 22
8 34 22 38 11 4 17 11 14 17 -4 6 -10 5 -15 -3 -5 -8 -9 -9 -9 -4 0 6 -5 3
-11 -5 -8 -12 -10 -8 -7 17 3 18 1 30 -4 27 -12 -8 -10 94 3 118 6 11 9 22 6
24 -2 2 -9 -7 -15 -22z"/>
<path d="M5151 5674 c0 -11 3 -14 6 -6 3 7 2 16 -1 19 -3 4 -6 -2 -5 -13z"/>
<path d="M6050 5611 c0 -5 7 -15 17 -22 15 -13 15 -12 4 9 -12 23 -21 28 -21
13z"/>
<path d="M4403 5603 c-24 -2 -43 -8 -43 -13 0 -5 25 -30 55 -55 30 -26 55 -54
55 -61 0 -8 7 -14 15 -14 8 0 24 -9 35 -20 11 -11 25 -20 30 -20 6 0 10 -4 10
-9 0 -13 59 -41 84 -40 21 0 21 1 1 9 -11 5 -15 9 -8 9 7 1 10 8 7 16 -4 11
-11 12 -24 5 -30 -16 -70 47 -70 110 0 34 28 47 60 30 15 -8 25 -8 34 -1 7 6
15 8 18 5 3 -3 22 4 42 14 l36 19 -63 8 c-77 9 -218 13 -274 8z"/>
<path d="M4789 5567 c7 -9 27 -17 44 -17 40 0 24 17 -23 26 -32 7 -34 6 -21
-9z"/>
<path d="M3640 5523 c0 -13 4 -23 8 -23 4 0 8 -12 7 -27 0 -14 6 -28 13 -30 6
-3 12 2 12 11 0 9 -5 16 -11 16 -6 0 -8 8 -5 18 4 10 -1 27 -9 38 -14 19 -14
18 -15 -3z"/>
<path d="M3598 5424 c-2 -11 -2 -30 2 -44 6 -25 6 -25 12 5 7 34 -6 70 -14 39z"/>
<path d="M3676 5385 c7 -33 24 -58 24 -34 -1 7 -7 25 -15 39 l-15 25 6 -30z"/>
<path d="M4687 5366 c-16 -12 -16 -14 -1 -20 26 -10 34 -7 34 14 0 23 -8 25
-33 6z"/>
<path d="M4798 5373 c-22 -6 -30 -30 -12 -37 18 -7 51 22 38 33 -5 4 -16 6
-26 4z"/>
<path d="M3681 5294 c0 -11 3 -14 6 -6 3 7 2 16 -1 19 -3 4 -6 -2 -5 -13z"/>
<path d="M4910 5300 c8 -5 26 -9 40 -9 l25 1 -25 8 c-14 4 -32 8 -40 9 -13 1
-13 0 0 -9z"/>
<path d="M5006 5295 c-3 -8 -1 -15 4 -15 6 0 10 7 10 15 0 8 -2 15 -4 15 -2 0
-6 -7 -10 -15z"/>
<path d="M5110 5284 c-20 -11 -22 -14 -8 -19 26 -10 46 -2 39 16 -5 13 -10 13
-31 3z"/>
<path d="M3672 5258 c2 -6 10 -14 16 -16 7 -2 10 2 6 12 -7 18 -28 22 -22 4z"/>
<path d="M3761 5114 c0 -11 3 -14 6 -6 3 7 2 16 -1 19 -3 4 -6 -2 -5 -13z"/>
<path d="M5646 5048 c7 -58 6 -61 -10 -46 -9 9 -15 22 -14 29 2 8 -15 13 -54
14 l-56 2 -7 -34 c-3 -18 -10 -31 -15 -28 -6 3 -7 -1 -4 -9 3 -8 14 -13 25
-11 23 5 25 -17 4 -35 -18 -15 -11 -30 16 -30 10 0 19 -5 19 -12 0 -20 18 5
23 32 4 24 4 24 6 -2 1 -21 6 -28 22 -28 11 0 18 4 15 8 -3 5 3 16 12 25 30
28 39 42 34 56 -3 9 0 11 7 6 14 -8 11 21 -9 88 -16 55 -22 45 -14 -25z m-30
-84 c-4 -9 -9 -15 -11 -12 -3 3 -3 13 1 22 4 9 9 15 11 12 3 -3 3 -13 -1 -22z"/>
<path d="M3722 5075 c0 -16 2 -22 5 -12 2 9 2 23 0 30 -3 6 -5 -1 -5 -18z"/>
<path d="M5907 4919 c7 -7 15 -10 18 -7 3 3 -2 9 -12 12 -14 6 -15 5 -6 -5z"/>
<path d="M3885 4899 c-4 -6 -4 -13 -1 -16 3 -4 6 -1 6 6 0 7 5 9 10 6 6 -3 10
-1 10 4 0 14 -17 14 -25 0z"/>
<path d="M5635 4640 c3 -5 8 -10 11 -10 2 0 4 5 4 10 0 6 -5 10 -11 10 -5 0
-7 -4 -4 -10z"/>
<path d="M5500 4545 c0 -8 4 -15 10 -15 5 0 7 7 4 15 -4 8 -8 15 -10 15 -2 0
-4 -7 -4 -15z"/>
<path d="M4180 4520 c-13 -8 -12 -10 3 -10 9 0 17 5 17 10 0 12 -1 12 -20 0z"/>
<path d="M4395 4170 c4 -6 11 -8 16 -5 14 9 11 15 -7 15 -8 0 -12 -5 -9 -10z"/>
<path d="M4615 4030 c-3 -6 1 -7 9 -4 18 7 21 14 7 14 -6 0 -13 -4 -16 -10z"/>
<path d="M6125 3710 c-3 -5 -1 -10 4 -10 6 0 11 5 11 10 0 6 -2 10 -4 10 -3 0
-8 -4 -11 -10z"/>
<path d="M5285 3690 c-3 -5 -1 -10 4 -10 6 0 11 5 11 10 0 6 -2 10 -4 10 -3 0
-8 -4 -11 -10z"/>
<path d="M6030 3690 c0 -5 5 -10 10 -10 6 0 10 5 10 10 0 6 -4 10 -10 10 -5 0
-10 -4 -10 -10z"/>
<path d="M5786 3652 c-3 -5 8 -9 25 -10 16 0 27 4 24 9 -8 11 -42 12 -49 1z"/>
<path d="M5930 3629 c0 -5 5 -7 10 -4 6 3 10 8 10 11 0 2 -4 4 -10 4 -5 0 -10
-5 -10 -11z"/>
<path d="M5640 3610 c-13 -8 -13 -10 2 -10 9 0 20 5 23 10 8 13 -5 13 -25 0z"/>
<path d="M5565 3590 c-3 -6 1 -7 9 -4 18 7 21 14 7 14 -6 0 -13 -4 -16 -10z"/>
</g>
</svg>
