<svg width="246" height="60" viewBox="0 0 246 60" xmlns="http://www.w3.org/2000/svg"><g fill="none" fill-rule="evenodd"><path d="M26.25 0L52.5 15v14.99l-13.131 7.503V22.504L26.25 15.007l-13.118 7.497v14.993L25.98 44.84V29.986l25.975 14.997v15.005L26.249 45.146V60L0 45V15L26.25 0z" fill="#FF4D63"/><path d="M216.032 46.114V19.673c0-.875-.716-1.59-1.59-1.59-.835 0-1.55.715-1.55 1.59v26.441h3.14zM186.23 21.182h8.964v24.932h3.18V21.182h8.964c.793 0 1.47-.635 1.47-1.43 0-.795-.677-1.47-1.47-1.47H186.23c-.795 0-1.471.675-1.471 1.47 0 .795.676 1.43 1.47 1.43m-84.601 13.315V19.712c0-.875.715-1.59 1.55-1.59.874 0 1.59.715 1.59 1.59v14.586c0 6.002 3.219 9.379 8.504 9.379 5.128 0 8.387-3.1 8.387-9.18V19.712c0-.875.715-1.59 1.59-1.59.834 0 1.55.715 1.55 1.59v14.546c0 8.108-4.651 12.32-11.607 12.32-6.874 0-11.564-4.212-11.564-12.081m119.29-2.162v-.08c0-7.87 5.882-14.387 14.069-14.387 4.492 0 7.353 1.47 9.936 3.617.319.278.636.716.636 1.271 0 .835-.755 1.55-1.59 1.55-.437 0-.795-.198-1.033-.357-2.147-1.908-4.57-3.18-7.988-3.18-6.16 0-10.77 5.007-10.77 11.406v.08c0 6.439 4.65 11.486 10.77 11.486 3.457 0 5.882-1.193 8.266-3.378.239-.239.597-.437.993-.437.795 0 1.51.715 1.51 1.51 0 .477-.238.874-.516 1.112-2.742 2.505-5.763 4.094-10.333 4.094-8.029 0-13.95-6.319-13.95-14.307m-41.544-14.252c-.875 0-1.55.715-1.55 1.55v20.985l-16.891-21.542c-.438-.556-.875-.914-1.59-.914h-.436c-.835 0-1.55.716-1.55 1.55v26.402h3.059V23.21l17.249 22.057c.477.557.954.955 1.629.955h.16c.833 0 1.43-.636 1.43-1.472V19.633c0-.835-.676-1.55-1.51-1.55M82.881 34.326v3.62l6.327 3.653c-1.53 1.016-3.617 1.845-6.367 1.845-3.275 0-6.122-1.178-8.232-3.406-2.025-2.139-3.14-5.026-3.14-8.129v-.081c0-3.103 1.13-6.004 3.18-8.17 1.49-1.573 4.135-3.447 8.274-3.447 3.275 0 6.122 1.178 8.232 3.407 2.025 2.138 3.14 5.025 3.14 8.128v.082c0 2.821-.943 5.469-2.654 7.555l-8.76-5.057zm14.55-2.58c0-7.865-5.83-14.67-14.508-14.67-8.68 0-14.588 6.887-14.588 14.752v.081c0 7.865 5.826 14.67 14.506 14.67 3.686 0 6.87-1.246 9.317-3.277l5.239 3.023v-3.62L94.39 40.97c1.941-2.551 3.04-5.755 3.04-9.142v-.082zm52.613 14.368h3.415l-11.524-26.72c-.318-.794-.915-1.312-1.828-1.312h-.16c-.913 0-1.47.518-1.827 1.313l-11.494 26.72h3.334l2.355-5.623h12.924l-1.32-3.14h-10.29l6.358-15.175 10.057 23.937z" fill="gray"/></g></svg>